<?xml version="1.0" encoding="utf-8"?>
<?xml-stylesheet type="text/xsl" href="rss1.xsl"?>
<rss version="2.0" xmlns:atom="http://www.w3.org/2005/Atom" xmlns:content="http://purl.org/rss/1.0/modules/content/" xmlns:dc="http://purl.org/dc/elements/1.1/" xmlns:media="http://search.yahoo.com/mrss/">
<channel>
 <title>Getty</title>
 <link>http://www.gettyimg.com/</link>
 <atom:link href="http://www.gettyimg.com/" rel="self" type="application/rss+xml" />

 
                <item>
                <title><![CDATA[【Requests】[REQ AUD] - La Roux - La Roux (Gold Edition) in FLAC]]></title>
                <link><![CDATA[https://sharemania.us/threads/la-roux-la-roux-gold-edition-in-flac.241354/]]></link>
                <description><![CDATA[<article>
<blockquote class="messageText SelectQuoteContainer ugc baseHtml">
I'm looking for the Gold Edition of La Roux by La Roux in FLAC.
<div class="messageTextEndMarker">&nbsp;</div>
</blockquote>
</article>]]></description>
                <author><![CDATA[MusicFanatic94]]></author>
                </item>

                
                <item>
                <title><![CDATA[【Cinema Center】MOVIE - Lua de Cristal (1990) 1080p GLBO (GLOBOPLAY) WEB-DL AAC2.0 (Português Brasileiro) x264-DASH]]></title>
                <link><![CDATA[https://sharemania.us/threads/lua-de-cristal-1990-1080p-glbo-globoplay-web-dl-aac2-0-portugu%C3%AAs-brasileiro-x264-dash.241357/]]></link>
                <description><![CDATA[<article>
<blockquote class="messageText SelectQuoteContainer ugc baseHtml">
<span style="font-size: 22px"><b>Lua.de.Cristal.1990.1080p.GLBO.WEB-DL.AAC2.0.x264-DASH.mkv (Português Brasileiro | Brazilian Portuguese)</b></span><br>
<span style="font-size: 18px"><br>
Título: </span><b><span style="font-size: 18px">Lua de Cristal</span></b><br>
<span style="font-size: 18px"><br>
Ano de lançamento:<b> 1990</b><br>
<br>
Idioma: <b><b>Português (Brasil)</b></b><br>
<br>
Serviço:</span><b><b> <span style="font-size: 18px">GLOBOPLAY (Brasil)</span></b></b><br>
<br>
<div class="ToggleTriggerAnchor bbCodeSpoilerContainer">
<button type="button" class="button bbCodeSpoilerButton ToggleTrigger Tooltip JsOnly" data-target="> .SpoilerTarget"><span>Spoiler: <span class="SpoilerTitle">MediaInfo</span></span></button>
<div class="SpoilerTarget bbCodeSpoilerText">General<br>
Unique ID : 326465459022136750225515203406370597787 (0xF59AF5D871086EAD0D736E61476E6B9B)<br>
Complete name : Lua.de.Cristal.1990.1080p.GLBO.WEB-DL.AAC2.0.x264-DASH\Lua.de.Cristal.1990.1080p.GLBO.WEB-DL.AAC2.0.x264-DASH.mkv<br>
Format : Matroska<br>
Format version : Version 4<br>
File size : 3.01 GiB<br>
Duration : 1 h 30 min<br>
Overall bit rate : 4 740 kb/s<br>
Frame rate : 29.970 FPS<br>
Encoded date : 2024-04-03 19:18:54 UTC<br>
Writing application : mkvmerge v82.0 ('I'm The President') 64-bit<br>
Writing library : libebml v1.4.5 + libmatroska v1.7.1<br>
<br>
Video<br>
ID : 1<br>
Format : AVC<br>
Format/Info : Advanced Video Codec<br>
Format profile : High@L4<br>
Format settings : CABAC / 2 Ref Frames<br>
Format settings, CABAC : Yes<br>
Format settings, Reference frames : 2 frames<br>
Codec ID : V_MPEG4/ISO/AVC<br>
Duration : 1 h 30 min<br>
Bit rate : 4 660 kb/s<br>
Width : 1 920 pixels<br>
Height : 1 080 pixels<br>
Display aspect ratio : 16:9<br>
Frame rate mode : Constant<br>
Frame rate : 29.970 (29970/1000) FPS<br>
Color space : YUV<br>
Chroma subsampling : 4:2:0<br>
Bit depth : 8 bits<br>
Scan type : Progressive<br>
Bits/(Pixel*Frame) : 0.075<br>
Stream size : 2.95 GiB (98%)<br>
Title : Portuguese<br>
Writing library : x264 core 148<br>
Encoding settings : cabac=1 / ref=2 / deblock=1:0:0 / analyse=0x3:0x113 / me=hex / subme=4 / psy=1 / psy_rd=1.00:0.00 / mixed_ref=0 / me_range=16 / chroma_me=1 / trellis=1 / 8x8dct=1 / cqm=0 / deadzone=21,11 / fast_pskip=1 / chroma_qp_offset=0 / threads=24 / lookahead_threads=6 / sliced_threads=0 / nr=0 / decimate=1 / interlaced=0 / bluray_compat=0 / constrained_intra=0 / bframes=1 / b_pyramid=0 / b_adapt=1 / b_bias=0 / direct=1 / weightb=1 / open_gop=0 / weightp=1 / keyint=30 / keyint_min=16 / scenecut=0 / intra_refresh=0 / rc=2pass / mbtree=0 / bitrate=4660 / ratetol=1.0 / qcomp=0.60 / qpmin=0 / qpmax=69 / qpstep=4 / cplxblur=20.0 / qblur=0.5 / ip_ratio=1.40 / pb_ratio=1.30 / aq=1:1.00<br>
Language : Portuguese<br>
Default : Yes<br>
Forced : No<br>
<br>
Audio<br>
ID : 2<br>
Format : AAC LC<br>
Format/Info : Advanced Audio Codec Low Complexity<br>
Codec ID : A_AAC-2<br>
Duration : 1 h 6 min<br>
Bit rate : 128 kb/s<br>
Channel(s) : 2 channels<br>
Channel layout : L R<br>
Sampling rate : 44.1 kHz<br>
Frame rate : 43.066 FPS (1024 SPF)<br>
Compression mode : Lossy<br>
Stream size : 60.4 MiB (2%)<br>
Title : Portuguese<br>
Language : Portuguese<br>
Default : Yes<br>
Forced : No<br>
<br>
Text #1<br>
ID : 3<br>
Format : UTF-8<br>
Codec ID : S_TEXT/UTF8<br>
Codec ID/Info : UTF-8 Plain Text<br>
Duration : 1 h 30 min<br>
Bit rate : 80 b/s<br>
Frame rate : 0.320 FPS<br>
Count of elements : 1741<br>
Stream size : 53.6 KiB (0%)<br>
Title : Portuguese<br>
Language : Portuguese<br>
Default : No<br>
Forced : No<br>
<br>
Text #2<br>
ID : 4<br>
Format : UTF-8<br>
Codec ID : S_TEXT/UTF8<br>
Codec ID/Info : UTF-8 Plain Text<br>
Duration : 1 h 30 min<br>
Bit rate : 80 b/s<br>
Frame rate : 0.320 FPS<br>
Count of elements : 1745<br>
Stream size : 53.6 KiB (0%)<br>
Title : Portuguese<br>
Language : Portuguese<br>
Default : No<br>
Forced : No</div>
</div><br>
<img src="https://i.imgur.com/9Rg23qs.jpeg" class="bbCodeImage LbImage" alt="[​IMG]" data-url="https://i.imgur.com/9Rg23qs.jpeg" style=""> <br>
<b><span style="font-size: 22px"><br>
O conto de fadas de uma jovem aspirante a cantora que deixa sua cidade natal para uma grande cidade a fim de realizar seus sonhos.</span></b><br>
<br>
<b><span style="font-size: 22px">Imagens:</span></b><br>
<img src="https://i.imgur.com/BpHPsGo.png" class="bbCodeImage LbImage" alt="[​IMG]" data-url="https://i.imgur.com/BpHPsGo.png" style=""> <br>
<b><span style="font-size: 22px"><br>
<b><span style="font-size: 26px">Download no Mega:</span></b></span><br>
<span style="font-size: 18px">
<div class="bbCodeBlock bbCodeVfcHH HiddenContent">
<div class="attribution type">Hidden Content:</div>
<blockquote>You must reply before you can see the hidden data contained here.</blockquote>
</div></span></b>
<div class="messageTextEndMarker">&nbsp;</div>
</blockquote>
</article>]]></description>
                <author><![CDATA[dash]]></author>
                </item>

                
                <item>
                <title><![CDATA[【Requests】[REQ PIC] - Madonna - Express Yourself (Master Clean MPG 576i PAL)]]></title>
                <link><![CDATA[https://sharemania.us/threads/madonna-express-yourself-master-clean-mpg-576i-pal.241353/]]></link>
                <description><![CDATA[<article>
<blockquote class="messageText SelectQuoteContainer ugc baseHtml">
<span style="font-size: 22px"><b>Madonna - Express Yourself (Master Clean MPG 576i PAL) – 1989</b><br>
<b>re-up pleazz</b></span>
<div class="messageTextEndMarker">&nbsp;</div>
</blockquote>
</article>]]></description>
                <author><![CDATA[vjrhymes]]></author>
                </item>

                
                <item>
                <title><![CDATA[【Cinema Center】SERIES - Codex 632 4K (2160p) GLBO HDR10 WEB-DL AAC2.0 DUAL (BR-PT + PT-PT) H.265 (HEVC) DASH - 27GB MEGA]]></title>
                <link><![CDATA[https://sharemania.us/threads/codex-632-4k-2160p-glbo-hdr10-web-dl-aac2-0-dual-br-pt-pt-pt-h-265-hevc-dash-27gb-mega.241358/]]></link>
                <description><![CDATA[<article>
<blockquote class="messageText SelectQuoteContainer ugc baseHtml">
<span style="font-size: 22px"><b>Codex.632.S01.HDR.2160p.GLBO.WEB-DL.AAC2.0.H.265-DASH.mkv (Português Brasileiro | Português Europeu | Brazilian Portuguese | European Portuguese) | MEGA (27 GB) | </b><b>1 Temporada | 6 Episódios | DASH</b></span><br>
<span style="font-size: 18px"><br>
Título: </span><b><span style="font-size: 18px">Codex 632</span></b><br>
<span style="font-size: 18px"><br>
Ano de lançamento:<b> 2023</b><br>
<br>
Idioma: <b><b>DUAL: Português (Brasil) | <b><b>Português (Portugal)</b></b></b></b><br>
<br>
Serviço:</span><b><b> <span style="font-size: 18px">GLOBOPLAY (Brasil)</span></b></b><br>
<br>
<div class="ToggleTriggerAnchor bbCodeSpoilerContainer">
<button type="button" class="button bbCodeSpoilerButton ToggleTrigger Tooltip JsOnly" data-target="> .SpoilerTarget"><span>Spoiler: <span class="SpoilerTitle">MediaInfo</span></span></button>
<div class="SpoilerTarget bbCodeSpoilerText">General<br>
Unique ID : 327810232944249113857769658478137149774 (0xF69DF4519E26ACC00E4FBF28971F894E)<br>
Complete name : Codex.632.S01.HDR.2160p.GLBO.WEB-DL.AAC2.0.H.265-DASH\Codex.632.S01E01.A.Morte.Do.Mestre.HDR.2160p.GLBO.WEB-DL.AAC2.0.H.265-DASH.mkv<br>
Format : Matroska<br>
Format version : Version 4<br>
File size : 4.67 GiB<br>
Duration : 41 min 54 s<br>
Overall bit rate : 15.9 Mb/s<br>
Frame rate : 23.976 FPS<br>
Encoded date : 2024-04-03 20:50:40 UTC<br>
Writing application : mkvmerge v82.0 ('I'm The President') 64-bit<br>
Writing library : libebml v1.4.5 + libmatroska v1.7.1<br>
<br>
Video<br>
ID : 1<br>
Format : HEVC<br>
Format/Info : High Efficiency Video Coding<br>
Format profile : Main 10@L5@Main<br>
HDR format : SMPTE ST 2086, HDR10 compatible<br>
Codec ID : V_MPEGH/ISO/HEVC<br>
Duration : 41 min 54 s<br>
Bit rate : 15.5 Mb/s<br>
Width : 3 840 pixels<br>
Height : 2 160 pixels<br>
Display aspect ratio : 16:9<br>
Frame rate mode : Constant<br>
Frame rate : 23.976 (23976/1000) FPS<br>
Original frame rate : 23.976 (24000/1001) FPS<br>
Color space : YUV<br>
Chroma subsampling : 4:2:0<br>
Bit depth : 10 bits<br>
Bits/(Pixel*Frame) : 0.078<br>
Stream size : 4.55 GiB (98%)<br>
Title : Portuguese<br>
Language : Portuguese<br>
Default : Yes<br>
Forced : No<br>
Color range : Limited<br>
Color primaries : BT.2020<br>
Transfer characteristics : PQ<br>
Matrix coefficients : BT.2020 non-constant<br>
Mastering display color primaries : Display P3<br>
Mastering display luminance : min: 0.0050 cd/m2, max: 1000 cd/m2<br>
Maximum Content Light Level : 800 cd/m2<br>
<br>
Audio #1<br>
ID : 2<br>
Format : AAC LC<br>
Format/Info : Advanced Audio Codec Low Complexity<br>
Codec ID : A_AAC-2<br>
Duration : 41 min 54 s<br>
Bit rate : 128 kb/s<br>
Channel(s) : 2 channels<br>
Channel layout : L R<br>
Sampling rate : 44.1 kHz<br>
Frame rate : 43.066 FPS (1024 SPF)<br>
Compression mode : Lossy<br>
Stream size : 38.4 MiB (1%)<br>
Title : Portuguese<br>
Language : Portuguese<br>
Default : Yes<br>
Forced : No<br>
<br>
Audio #2<br>
ID : 3<br>
Format : AAC LC<br>
Format/Info : Advanced Audio Codec Low Complexity<br>
Codec ID : A_AAC-2<br>
Duration : 41 min 54 s<br>
Bit rate : 128 kb/s<br>
Channel(s) : 2 channels<br>
Channel layout : L R<br>
Sampling rate : 44.1 kHz<br>
Frame rate : 43.066 FPS (1024 SPF)<br>
Compression mode : Lossy<br>
Stream size : 38.4 MiB (1%)<br>
Title : Portuguese<br>
Language : Portuguese<br>
Default : No<br>
Forced : No<br>
<br>
Audio #3<br>
ID : 4<br>
Format : AAC LC<br>
Format/Info : Advanced Audio Codec Low Complexity<br>
Codec ID : A_AAC-2<br>
Duration : 41 min 54 s<br>
Bit rate : 128 kb/s<br>
Channel(s) : 2 channels<br>
Channel layout : L R<br>
Sampling rate : 44.1 kHz<br>
Frame rate : 43.066 FPS (1024 SPF)<br>
Compression mode : Lossy<br>
Stream size : 38.4 MiB (1%)<br>
Title : Portuguese (Portugal)<br>
Language : Portuguese<br>
Default : No<br>
Forced : No<br>
<br>
Text #1<br>
ID : 5<br>
Format : UTF-8<br>
Codec ID : S_TEXT/UTF8<br>
Codec ID/Info : UTF-8 Plain Text<br>
Duration : 41 min 54 s<br>
Bit rate : 74 b/s<br>
Frame rate : 0.254 FPS<br>
Count of elements : 638<br>
Stream size : 22.9 KiB (0%)<br>
Title : Portuguese<br>
Language : Portuguese<br>
Default : No<br>
Forced : No<br>
<br>
Text #2<br>
ID : 6<br>
Format : UTF-8<br>
Codec ID : S_TEXT/UTF8<br>
Codec ID/Info : UTF-8 Plain Text<br>
Duration : 41 min 54 s<br>
Bit rate : 74 b/s<br>
Frame rate : 0.254 FPS<br>
Count of elements : 638<br>
Stream size : 22.9 KiB (0%)<br>
Title : Portuguese<br>
Language : Portuguese<br>
Default : No<br>
Forced : No<br>
<br>
Text #3<br>
ID : 7<br>
Format : UTF-8<br>
Codec ID : S_TEXT/UTF8<br>
Codec ID/Info : UTF-8 Plain Text<br>
Duration : 36 min 26 s<br>
Bit rate : 59 b/s<br>
Frame rate : 0.213 FPS<br>
Count of elements : 465<br>
Stream size : 16.0 KiB (0%)<br>
Title : Portuguese<br>
Language : Portuguese<br>
Default : No<br>
Forced : No<br>
<br>
Text #4<br>
ID : 8<br>
Format : UTF-8<br>
Codec ID : S_TEXT/UTF8<br>
Codec ID/Info : UTF-8 Plain Text<br>
Duration : 41 min 54 s<br>
Bit rate : 83 b/s<br>
Frame rate : 0.315 FPS<br>
Count of elements : 791<br>
Stream size : 25.7 KiB (0%)<br>
Title : Portuguese<br>
Language : Portuguese<br>
Default : No<br>
Forced : No</div>
</div><br>
<img src="https://i.imgur.com/eAiBl3i.jpeg" class="bbCodeImage LbImage" alt="[​IMG]" data-url="https://i.imgur.com/eAiBl3i.jpeg" style=""> <br>
<br>
<br>
<b><span style="font-size: 22px">Tomás, um professor especialista em criptologia, é contratado por uma fundação para decifrar o enigma deixado por seu falecido mentor. Disponível em áudio original e dublado.</span></b><br>
<br>
<b><span style="font-size: 22px">Imagens:</span></b><br>
<img src="https://i.imgur.com/uM3kENc.png" class="bbCodeImage LbImage" alt="[​IMG]" data-url="https://i.imgur.com/uM3kENc.png" style=""> <br>
<b><span style="font-size: 22px"><br>
<b><span style="font-size: 26px">Download no Mega:</span></b></span><br>
<span style="font-size: 18px">
<div class="bbCodeBlock bbCodeVfcHH HiddenContent">
<div class="attribution type">Hidden Content:</div>
<blockquote>You must reply before you can see the hidden data contained here.</blockquote>
</div></span></b>
<div class="messageTextEndMarker">&nbsp;</div>
</blockquote>
</article>]]></description>
                <author><![CDATA[dash]]></author>
                </item>

                
                <item>
                <title><![CDATA[【Cinema Center】SERIES - Fraggle Rock: Back to the Rock - Season 2 - 1080p Apple TV+ WEB-DL DDP5.1 Atmos H.264-LAZY]]></title>
                <link><![CDATA[https://sharemania.us/threads/fraggle-rock-back-to-the-rock-season-2-1080p-apple-tv-web-dl-ddp5-1-atmos-h-264-lazy.241359/]]></link>
                <description><![CDATA[<article>
<blockquote class="messageText SelectQuoteContainer ugc baseHtml">
Fraggle Rock: Back to the Rock:<img src="https://artworks.thetvdb.com/banners/v4/series/412536/banners/660daba787d80.jpg" class="bbCodeImage LbImage" alt="[​IMG]" data-url="https://artworks.thetvdb.com/banners/v4/series/412536/banners/660daba787d80.jpg" style=""> <br>
<br>
<div class="bbCodeBlock bbCodeQuote">
<aside>
<blockquote class="quoteContainer"><div class="quote"><i><b>Synopsis:</b></i><br>
Jim Henson's fun-loving, musical Fraggles are back! Join Gobo, Red, Wembley, Mokey, Boober and new Fraggle friends on hilarious, epic adventures about the magic that happens when we celebrate and care for our interconnected world.</div><div class="quoteExpand">Click to expand...</div></blockquote>
</aside>
</div>
<div class="ToggleTriggerAnchor bbCodeSpoilerContainer">
<button type="button" class="button bbCodeSpoilerButton ToggleTrigger Tooltip JsOnly" data-target="> .SpoilerTarget"><span>Spoiler: <span class="SpoilerTitle">MediaInfo</span></span></button>
<div class="SpoilerTarget bbCodeSpoilerText">General<br>
Unique ID : 11899506800879041705972975215120765934 (0x8F3C2FB4E560B600FA7DA4F898C53EE)<br>
Format : Matroska<br>
Format version : Version 4<br>
File size : 1.92 GiB<br>
Duration : 26 min 11 s<br>
Overall bit rate : 10.5 Mb/s<br>
Encoded date : UTC 2024-04-03 15:09:51<br>
Writing application : mkvmerge v83.0 ('Circle Of Friends') 64-bit<br>
Writing library : libebml v1.4.5 + libmatroska v1.7.1<br>
<br>
Video<br>
ID : 1<br>
Format : AVC<br>
Format/Info : Advanced Video Codec<br>
Format profile : High@L4<br>
Format settings : CABAC / 4 Ref Frames<br>
Format settings, CABAC : Yes<br>
Format settings, Reference frames : 4 frames<br>
Codec ID : V_MPEG4/ISO/AVC<br>
Duration : 26 min 11 s<br>
Bit rate : 9 716 kb/s<br>
Width : 1 920 pixels<br>
Height : 1 080 pixels<br>
Display aspect ratio : 16:9<br>
Frame rate mode : Constant<br>
Frame rate : 23.976 (24000/1001) FPS<br>
Color space : YUV<br>
Chroma subsampling : 4:2:0<br>
Bit depth : 8 bits<br>
Scan type : Progressive<br>
Bits/(Pixel*Frame) : 0.195<br>
Stream size : 1.78 GiB (93%)<br>
Default : Yes<br>
Forced : No<br>
Color range : Limited<br>
Color primaries : BT.709<br>
Transfer characteristics : BT.709<br>
Matrix coefficients : BT.709<br>
<br>
Audio<br>
ID : 2<br>
Format : E-AC-3 JOC<br>
Format/Info : Enhanced AC-3 with Joint Object Coding<br>
Commercial name : Dolby Digital Plus with Dolby Atmos<br>
Codec ID : A_EAC3<br>
Duration : 26 min 11 s<br>
Bit rate mode : Constant<br>
Bit rate : 768 kb/s<br>
Channel(s) : 6 channels<br>
Channel layout : L R C LFE Ls Rs<br>
Sampling rate : 48.0 kHz<br>
Frame rate : 31.250 FPS (1536 SPF)<br>
Compression mode : Lossy<br>
Stream size : 144 MiB (7%)<br>
Language : English<br>
Service kind : Complete Main<br>
Default : Yes<br>
Forced : No<br>
Complexity index : 16<br>
Number of dynamic objects : 15<br>
Bed channel count : 1 channel<br>
Bed channel configuration : LFE<br>
<br>
Text #1<br>
ID : 3<br>
Format : UTF-8<br>
Codec ID : S_TEXT/UTF8<br>
Codec ID/Info : UTF-8 Plain Text<br>
Duration : 24 min 12 s<br>
Bit rate : 76 b/s<br>
Count of elements : 432<br>
Stream size : 13.7 KiB (0%)<br>
Language : English<br>
Default : No<br>
Forced : No<br>
<br>
Text #2<br>
ID : 4<br>
Format : UTF-8<br>
Codec ID : S_TEXT/UTF8<br>
Codec ID/Info : UTF-8 Plain Text<br>
Duration : 24 min 29 s<br>
Bit rate : 107 b/s<br>
Count of elements : 556<br>
Stream size : 19.3 KiB (0%)<br>
Title : SDH<br>
Language : English<br>
Default : No<br>
Forced : No<br>
<br>
Text #3<br>
ID : 5<br>
Format : UTF-8<br>
Codec ID : S_TEXT/UTF8<br>
Codec ID/Info : UTF-8 Plain Text<br>
Duration : 25 min 36 s<br>
Bit rate : 103 b/s<br>
Count of elements : 435<br>
Stream size : 19.5 KiB (0%)<br>
Language : Arabic<br>
Default : No<br>
Forced : No<br>
<br>
Text #4<br>
ID : 6<br>
Format : UTF-8<br>
Codec ID : S_TEXT/UTF8<br>
Codec ID/Info : UTF-8 Plain Text<br>
Duration : 25 min 53 s<br>
Bit rate : 122 b/s<br>
Count of elements : 558<br>
Stream size : 23.3 KiB (0%)<br>
Title : SDH<br>
Language : Arabic<br>
Default : No<br>
Forced : No<br>
<br>
Text #5<br>
ID : 7<br>
Format : UTF-8<br>
Codec ID : S_TEXT/UTF8<br>
Codec ID/Info : UTF-8 Plain Text<br>
Duration : 25 min 36 s<br>
Bit rate : 99 b/s<br>
Count of elements : 341<br>
Stream size : 18.6 KiB (0%)<br>
Language : Bulgarian<br>
Default : No<br>
Forced : No<br>
<br>
Text #6<br>
ID : 8<br>
Format : UTF-8<br>
Codec ID : S_TEXT/UTF8<br>
Codec ID/Info : UTF-8 Plain Text<br>
Duration : 25 min 53 s<br>
Bit rate : 136 b/s<br>
Count of elements : 490<br>
Stream size : 25.9 KiB (0%)<br>
Title : SDH<br>
Language : Bulgarian<br>
Default : No<br>
Forced : No<br>
<br>
Text #7<br>
ID : 9<br>
Format : UTF-8<br>
Codec ID : S_TEXT/UTF8<br>
Codec ID/Info : UTF-8 Plain Text<br>
Duration : 25 min 36 s<br>
Bit rate : 64 b/s<br>
Count of elements : 435<br>
Stream size : 12.0 KiB (0%)<br>
Title : Simplified, Mandarin<br>
Language : Chinese<br>
Default : No<br>
Forced : No<br>
<br>
Text #8<br>
ID : 10<br>
Format : UTF-8<br>
Codec ID : S_TEXT/UTF8<br>
Codec ID/Info : UTF-8 Plain Text<br>
Duration : 25 min 53 s<br>
Bit rate : 94 b/s<br>
Count of elements : 559<br>
Stream size : 17.9 KiB (0%)<br>
Title : Simplified, Mandarin (SDH)<br>
Language : Chinese<br>
Default : No<br>
Forced : No<br>
<br>
Text #9<br>
ID : 11<br>
Format : UTF-8<br>
Codec ID : S_TEXT/UTF8<br>
Codec ID/Info : UTF-8 Plain Text<br>
Duration : 25 min 36 s<br>
Bit rate : 67 b/s<br>
Count of elements : 435<br>
Stream size : 12.6 KiB (0%)<br>
Title : Traditional, Mandarin<br>
Language : Chinese<br>
Default : No<br>
Forced : No<br>
<br>
Text #10<br>
ID : 12<br>
Format : UTF-8<br>
Codec ID : S_TEXT/UTF8<br>
Codec ID/Info : UTF-8 Plain Text<br>
Duration : 25 min 53 s<br>
Bit rate : 102 b/s<br>
Count of elements : 558<br>
Stream size : 19.3 KiB (0%)<br>
Title : Traditional, Mandarin (SDH)<br>
Language : Chinese<br>
Default : No<br>
Forced : No<br>
<br>
Text #11<br>
ID : 13<br>
Format : UTF-8<br>
Codec ID : S_TEXT/UTF8<br>
Codec ID/Info : UTF-8 Plain Text<br>
Duration : 25 min 36 s<br>
Bit rate : 62 b/s<br>
Count of elements : 406<br>
Stream size : 11.7 KiB (0%)<br>
Language : Czech<br>
Default : No<br>
Forced : No<br>
<br>
Text #12<br>
ID : 14<br>
Format : UTF-8<br>
Codec ID : S_TEXT/UTF8<br>
Codec ID/Info : UTF-8 Plain Text<br>
Duration : 25 min 53 s<br>
Bit rate : 89 b/s<br>
Count of elements : 511<br>
Stream size : 16.9 KiB (0%)<br>
Title : SDH<br>
Language : Czech<br>
Default : No<br>
Forced : No<br>
<br>
Text #13<br>
ID : 15<br>
Format : UTF-8<br>
Codec ID : S_TEXT/UTF8<br>
Codec ID/Info : UTF-8 Plain Text<br>
Duration : 25 min 36 s<br>
Bit rate : 72 b/s<br>
Count of elements : 365<br>
Stream size : 13.6 KiB (0%)<br>
Language : Danish<br>
Default : No<br>
Forced : No<br>
<br>
Text #14<br>
ID : 16<br>
Format : UTF-8<br>
Codec ID : S_TEXT/UTF8<br>
Codec ID/Info : UTF-8 Plain Text<br>
Duration : 25 min 53 s<br>
Bit rate : 99 b/s<br>
Count of elements : 549<br>
Stream size : 18.9 KiB (0%)<br>
Title : SDH<br>
Language : Danish<br>
Default : No<br>
Forced : No<br>
<br>
Text #15<br>
ID : 17<br>
Format : UTF-8<br>
Codec ID : S_TEXT/UTF8<br>
Codec ID/Info : UTF-8 Plain Text<br>
Duration : 25 min 36 s<br>
Bit rate : 70 b/s<br>
Count of elements : 403<br>
Stream size : 13.2 KiB (0%)<br>
Language : German<br>
Default : No<br>
Forced : No<br>
<br>
Text #16<br>
ID : 18<br>
Format : UTF-8<br>
Codec ID : S_TEXT/UTF8<br>
Codec ID/Info : UTF-8 Plain Text<br>
Duration : 25 min 53 s<br>
Bit rate : 109 b/s<br>
Count of elements : 585<br>
Stream size : 20.7 KiB (0%)<br>
Title : SDH<br>
Language : German<br>
Default : No<br>
Forced : No<br>
<br>
Text #17<br>
ID : 19<br>
Format : UTF-8<br>
Codec ID : S_TEXT/UTF8<br>
Codec ID/Info : UTF-8 Plain Text<br>
Duration : 25 min 36 s<br>
Bit rate : 109 b/s<br>
Count of elements : 417<br>
Stream size : 20.6 KiB (0%)<br>
Language : Greek<br>
Default : No<br>
Forced : No<br>
<br>
Text #18<br>
ID : 20<br>
Format : UTF-8<br>
Codec ID : S_TEXT/UTF8<br>
Codec ID/Info : UTF-8 Plain Text<br>
Duration : 25 min 53 s<br>
Bit rate : 155 b/s<br>
Count of elements : 543<br>
Stream size : 29.6 KiB (0%)<br>
Title : SDH<br>
Language : Greek<br>
Default : No<br>
Forced : No<br>
<br>
Text #19<br>
ID : 21<br>
Format : UTF-8<br>
Codec ID : S_TEXT/UTF8<br>
Codec ID/Info : UTF-8 Plain Text<br>
Duration : 25 min 36 s<br>
Bit rate : 72 b/s<br>
Count of elements : 434<br>
Stream size : 13.7 KiB (0%)<br>
Title : Latin American<br>
Language : Spanish<br>
Default : No<br>
Forced : No<br>
<br>
Text #20<br>
ID : 22<br>
Format : UTF-8<br>
Codec ID : S_TEXT/UTF8<br>
Codec ID/Info : UTF-8 Plain Text<br>
Duration : 25 min 53 s<br>
Bit rate : 99 b/s<br>
Count of elements : 561<br>
Stream size : 18.9 KiB (0%)<br>
Title : Latin American (SDH)<br>
Language : Spanish<br>
Default : No<br>
Forced : No<br>
<br>
Text #21<br>
ID : 23<br>
Format : UTF-8<br>
Codec ID : S_TEXT/UTF8<br>
Codec ID/Info : UTF-8 Plain Text<br>
Duration : 25 min 36 s<br>
Bit rate : 76 b/s<br>
Count of elements : 443<br>
Stream size : 14.4 KiB (0%)<br>
Title : European<br>
Language : Spanish<br>
Default : No<br>
Forced : No<br>
<br>
Text #22<br>
ID : 24<br>
Format : UTF-8<br>
Codec ID : S_TEXT/UTF8<br>
Codec ID/Info : UTF-8 Plain Text<br>
Duration : 25 min 53 s<br>
Bit rate : 100 b/s<br>
Count of elements : 567<br>
Stream size : 19.1 KiB (0%)<br>
Title : European (SDH)<br>
Language : Spanish<br>
Default : No<br>
Forced : No<br>
<br>
Text #23<br>
ID : 25<br>
Format : UTF-8<br>
Codec ID : S_TEXT/UTF8<br>
Codec ID/Info : UTF-8 Plain Text<br>
Duration : 25 min 36 s<br>
Bit rate : 62 b/s<br>
Count of elements : 394<br>
Stream size : 11.7 KiB (0%)<br>
Language : Estonian<br>
Default : No<br>
Forced : No<br>
<br>
Text #24<br>
ID : 26<br>
Format : UTF-8<br>
Codec ID : S_TEXT/UTF8<br>
Codec ID/Info : UTF-8 Plain Text<br>
Duration : 25 min 53 s<br>
Bit rate : 92 b/s<br>
Count of elements : 534<br>
Stream size : 17.6 KiB (0%)<br>
Title : SDH<br>
Language : Estonian<br>
Default : No<br>
Forced : No<br>
<br>
Text #25<br>
ID : 27<br>
Format : UTF-8<br>
Codec ID : S_TEXT/UTF8<br>
Codec ID/Info : UTF-8 Plain Text<br>
Duration : 25 min 40 s<br>
Bit rate : 66 b/s<br>
Count of elements : 390<br>
Stream size : 12.5 KiB (0%)<br>
Language : Finnish<br>
Default : No<br>
Forced : No<br>
<br>
Text #26<br>
ID : 28<br>
Format : UTF-8<br>
Codec ID : S_TEXT/UTF8<br>
Codec ID/Info : UTF-8 Plain Text<br>
Duration : 25 min 53 s<br>
Bit rate : 73 b/s<br>
Count of elements : 447<br>
Stream size : 13.9 KiB (0%)<br>
Title : SDH<br>
Language : Finnish<br>
Default : No<br>
Forced : No<br>
<br>
Text #27<br>
ID : 29<br>
Format : UTF-8<br>
Codec ID : S_TEXT/UTF8<br>
Codec ID/Info : UTF-8 Plain Text<br>
Duration : 25 min 36 s<br>
Bit rate : 67 b/s<br>
Count of elements : 435<br>
Stream size : 12.6 KiB (0%)<br>
Title : Canadian<br>
Language : French<br>
Default : No<br>
Forced : No<br>
<br>
Text #28<br>
ID : 30<br>
Format : UTF-8<br>
Codec ID : S_TEXT/UTF8<br>
Codec ID/Info : UTF-8 Plain Text<br>
Duration : 25 min 52 s<br>
Bit rate : 90 b/s<br>
Count of elements : 565<br>
Stream size : 17.1 KiB (0%)<br>
Title : Canadian (SDH)<br>
Language : French<br>
Default : No<br>
Forced : No<br>
<br>
Text #29<br>
ID : 31<br>
Format : UTF-8<br>
Codec ID : S_TEXT/UTF8<br>
Codec ID/Info : UTF-8 Plain Text<br>
Duration : 25 min 36 s<br>
Bit rate : 67 b/s<br>
Count of elements : 435<br>
Stream size : 12.6 KiB (0%)<br>
Language : French<br>
Default : No<br>
Forced : No<br>
<br>
Text #30<br>
ID : 32<br>
Format : UTF-8<br>
Codec ID : S_TEXT/UTF8<br>
Codec ID/Info : UTF-8 Plain Text<br>
Duration : 25 min 52 s<br>
Bit rate : 90 b/s<br>
Count of elements : 565<br>
Stream size : 17.1 KiB (0%)<br>
Title : SDH<br>
Language : French<br>
Default : No<br>
Forced : No<br>
<br>
Text #31<br>
ID : 33<br>
Format : UTF-8<br>
Codec ID : S_TEXT/UTF8<br>
Codec ID/Info : UTF-8 Plain Text<br>
Duration : 25 min 36 s<br>
Bit rate : 99 b/s<br>
Count of elements : 436<br>
Stream size : 18.6 KiB (0%)<br>
Language : Hebrew<br>
Default : No<br>
Forced : No<br>
<br>
Text #32<br>
ID : 34<br>
Format : UTF-8<br>
Codec ID : S_TEXT/UTF8<br>
Codec ID/Info : UTF-8 Plain Text<br>
Duration : 25 min 53 s<br>
Bit rate : 135 b/s<br>
Count of elements : 560<br>
Stream size : 25.7 KiB (0%)<br>
Title : SDH<br>
Language : Hebrew<br>
Default : No<br>
Forced : No<br>
<br>
Text #33<br>
ID : 35<br>
Format : UTF-8<br>
Codec ID : S_TEXT/UTF8<br>
Codec ID/Info : UTF-8 Plain Text<br>
Duration : 25 min 36 s<br>
Bit rate : 192 b/s<br>
Count of elements : 436<br>
Stream size : 36.1 KiB (0%)<br>
Language : Hindi<br>
Default : No<br>
Forced : No<br>
<br>
Text #34<br>
ID : 36<br>
Format : UTF-8<br>
Codec ID : S_TEXT/UTF8<br>
Codec ID/Info : UTF-8 Plain Text<br>
Duration : 25 min 53 s<br>
Bit rate : 252 b/s<br>
Count of elements : 559<br>
Stream size : 47.9 KiB (0%)<br>
Title : SDH<br>
Language : Hindi<br>
Default : No<br>
Forced : No<br>
<br>
Text #35<br>
ID : 37<br>
Format : UTF-8<br>
Codec ID : S_TEXT/UTF8<br>
Codec ID/Info : UTF-8 Plain Text<br>
Duration : 25 min 36 s<br>
Bit rate : 73 b/s<br>
Count of elements : 436<br>
Stream size : 13.8 KiB (0%)<br>
Language : Hungarian<br>
Default : No<br>
Forced : No<br>
<br>
Text #36<br>
ID : 38<br>
Format : UTF-8<br>
Codec ID : S_TEXT/UTF8<br>
Codec ID/Info : UTF-8 Plain Text<br>
Duration : 25 min 53 s<br>
Bit rate : 105 b/s<br>
Count of elements : 560<br>
Stream size : 20.1 KiB (0%)<br>
Title : SDH<br>
Language : Hungarian<br>
Default : No<br>
Forced : No<br>
<br>
Text #37<br>
ID : 39<br>
Format : UTF-8<br>
Codec ID : S_TEXT/UTF8<br>
Codec ID/Info : UTF-8 Plain Text<br>
Duration : 25 min 36 s<br>
Bit rate : 78 b/s<br>
Count of elements : 435<br>
Stream size : 14.7 KiB (0%)<br>
Language : Indonesian<br>
Default : No<br>
Forced : No<br>
<br>
Text #38<br>
ID : 40<br>
Format : UTF-8<br>
Codec ID : S_TEXT/UTF8<br>
Codec ID/Info : UTF-8 Plain Text<br>
Duration : 25 min 53 s<br>
Bit rate : 108 b/s<br>
Count of elements : 559<br>
Stream size : 20.6 KiB (0%)<br>
Title : SDH<br>
Language : Indonesian<br>
Default : No<br>
Forced : No<br>
<br>
Text #39<br>
ID : 41<br>
Format : UTF-8<br>
Codec ID : S_TEXT/UTF8<br>
Codec ID/Info : UTF-8 Plain Text<br>
Duration : 25 min 39 s<br>
Bit rate : 78 b/s<br>
Count of elements : 428<br>
Stream size : 14.7 KiB (0%)<br>
Language : Italian<br>
Default : No<br>
Forced : No<br>
<br>
Text #40<br>
ID : 42<br>
Format : UTF-8<br>
Codec ID : S_TEXT/UTF8<br>
Codec ID/Info : UTF-8 Plain Text<br>
Duration : 25 min 56 s<br>
Bit rate : 92 b/s<br>
Count of elements : 491<br>
Stream size : 17.6 KiB (0%)<br>
Title : SDH<br>
Language : Italian<br>
Default : No<br>
Forced : No<br>
<br>
Text #41<br>
ID : 43<br>
Format : UTF-8<br>
Codec ID : S_TEXT/UTF8<br>
Codec ID/Info : UTF-8 Plain Text<br>
Duration : 25 min 36 s<br>
Bit rate : 68 b/s<br>
Count of elements : 399<br>
Stream size : 12.8 KiB (0%)<br>
Language : Japanese<br>
Default : No<br>
Forced : No<br>
<br>
Text #42<br>
ID : 44<br>
Format : UTF-8<br>
Codec ID : S_TEXT/UTF8<br>
Codec ID/Info : UTF-8 Plain Text<br>
Duration : 25 min 53 s<br>
Bit rate : 151 b/s<br>
Count of elements : 804<br>
Stream size : 28.8 KiB (0%)<br>
Title : SDH<br>
Language : Japanese<br>
Default : No<br>
Forced : No<br>
<br>
Text #43<br>
ID : 45<br>
Format : UTF-8<br>
Codec ID : S_TEXT/UTF8<br>
Codec ID/Info : UTF-8 Plain Text<br>
Duration : 25 min 36 s<br>
Bit rate : 79 b/s<br>
Count of elements : 430<br>
Stream size : 14.9 KiB (0%)<br>
Language : Korean<br>
Default : No<br>
Forced : No<br>
<br>
Text #44<br>
ID : 46<br>
Format : UTF-8<br>
Codec ID : S_TEXT/UTF8<br>
Codec ID/Info : UTF-8 Plain Text<br>
Duration : 25 min 53 s<br>
Bit rate : 128 b/s<br>
Count of elements : 559<br>
Stream size : 24.3 KiB (0%)<br>
Title : SDH<br>
Language : Korean<br>
Default : No<br>
Forced : No<br>
<br>
Text #45<br>
ID : 47<br>
Format : UTF-8<br>
Codec ID : S_TEXT/UTF8<br>
Codec ID/Info : UTF-8 Plain Text<br>
Duration : 25 min 36 s<br>
Bit rate : 72 b/s<br>
Count of elements : 431<br>
Stream size : 13.7 KiB (0%)<br>
Language : Lithuanian<br>
Default : No<br>
Forced : No<br>
<br>
Text #46<br>
ID : 48<br>
Format : UTF-8<br>
Codec ID : S_TEXT/UTF8<br>
Codec ID/Info : UTF-8 Plain Text<br>
Duration : 25 min 53 s<br>
Bit rate : 104 b/s<br>
Count of elements : 559<br>
Stream size : 19.9 KiB (0%)<br>
Title : SDH<br>
Language : Lithuanian<br>
Default : No<br>
Forced : No<br>
<br>
Text #47<br>
ID : 49<br>
Format : UTF-8<br>
Codec ID : S_TEXT/UTF8<br>
Codec ID/Info : UTF-8 Plain Text<br>
Duration : 25 min 36 s<br>
Bit rate : 68 b/s<br>
Count of elements : 430<br>
Stream size : 12.9 KiB (0%)<br>
Language : Latvian<br>
Default : No<br>
Forced : No<br>
<br>
Text #48<br>
ID : 50<br>
Format : UTF-8<br>
Codec ID : S_TEXT/UTF8<br>
Codec ID/Info : UTF-8 Plain Text<br>
Duration : 25 min 53 s<br>
Bit rate : 97 b/s<br>
Count of elements : 545<br>
Stream size : 18.5 KiB (0%)<br>
Title : SDH<br>
Language : Latvian<br>
Default : No<br>
Forced : No<br>
<br>
Text #49<br>
ID : 51<br>
Format : UTF-8<br>
Codec ID : S_TEXT/UTF8<br>
Codec ID/Info : UTF-8 Plain Text<br>
Duration : 25 min 36 s<br>
Bit rate : 73 b/s<br>
Count of elements : 433<br>
Stream size : 13.8 KiB (0%)<br>
Language : Malay<br>
Default : No<br>
Forced : No<br>
<br>
Text #50<br>
ID : 52<br>
Format : UTF-8<br>
Codec ID : S_TEXT/UTF8<br>
Codec ID/Info : UTF-8 Plain Text<br>
Duration : 25 min 53 s<br>
Bit rate : 106 b/s<br>
Count of elements : 559<br>
Stream size : 20.3 KiB (0%)<br>
Title : SDH<br>
Language : Malay<br>
Default : No<br>
Forced : No<br>
<br>
Text #51<br>
ID : 53<br>
Format : UTF-8<br>
Codec ID : S_TEXT/UTF8<br>
Codec ID/Info : UTF-8 Plain Text<br>
Duration : 25 min 36 s<br>
Bit rate : 68 b/s<br>
Count of elements : 303<br>
Stream size : 12.8 KiB (0%)<br>
Language : Dutch<br>
Default : No<br>
Forced : No<br>
<br>
Text #52<br>
ID : 54<br>
Format : UTF-8<br>
Codec ID : S_TEXT/UTF8<br>
Codec ID/Info : UTF-8 Plain Text<br>
Duration : 25 min 53 s<br>
Bit rate : 88 b/s<br>
Count of elements : 420<br>
Stream size : 16.7 KiB (0%)<br>
Title : SDH<br>
Language : Dutch<br>
Default : No<br>
Forced : No<br>
<br>
Text #53<br>
ID : 55<br>
Format : UTF-8<br>
Codec ID : S_TEXT/UTF8<br>
Codec ID/Info : UTF-8 Plain Text<br>
Duration : 25 min 36 s<br>
Bit rate : 62 b/s<br>
Count of elements : 340<br>
Stream size : 11.8 KiB (0%)<br>
Title : Belgian<br>
Language : Dutch<br>
Default : No<br>
Forced : No<br>
<br>
Text #54<br>
ID : 56<br>
Format : UTF-8<br>
Codec ID : S_TEXT/UTF8<br>
Codec ID/Info : UTF-8 Plain Text<br>
Duration : 25 min 53 s<br>
Bit rate : 86 b/s<br>
Count of elements : 423<br>
Stream size : 16.5 KiB (0%)<br>
Title : Belgian (SDH)<br>
Language : Dutch<br>
Default : No<br>
Forced : No<br>
<br>
Text #55<br>
ID : 57<br>
Format : UTF-8<br>
Codec ID : S_TEXT/UTF8<br>
Codec ID/Info : UTF-8 Plain Text<br>
Duration : 25 min 36 s<br>
Bit rate : 66 b/s<br>
Count of elements : 352<br>
Stream size : 12.5 KiB (0%)<br>
Language : Norwegian<br>
Default : No<br>
Forced : No<br>
<br>
Text #56<br>
ID : 58<br>
Format : UTF-8<br>
Codec ID : S_TEXT/UTF8<br>
Codec ID/Info : UTF-8 Plain Text<br>
Duration : 25 min 53 s<br>
Bit rate : 84 b/s<br>
Count of elements : 409<br>
Stream size : 16.0 KiB (0%)<br>
Title : SDH<br>
Language : Norwegian<br>
Default : No<br>
Forced : No<br>
<br>
Text #57<br>
ID : 59<br>
Format : UTF-8<br>
Codec ID : S_TEXT/UTF8<br>
Codec ID/Info : UTF-8 Plain Text<br>
Duration : 25 min 36 s<br>
Bit rate : 65 b/s<br>
Count of elements : 381<br>
Stream size : 12.3 KiB (0%)<br>
Language : Polish<br>
Default : No<br>
Forced : No<br>
<br>
Text #58<br>
ID : 60<br>
Format : UTF-8<br>
Codec ID : S_TEXT/UTF8<br>
Codec ID/Info : UTF-8 Plain Text<br>
Duration : 25 min 53 s<br>
Bit rate : 80 b/s<br>
Count of elements : 485<br>
Stream size : 15.4 KiB (0%)<br>
Title : SDH<br>
Language : Polish<br>
Default : No<br>
Forced : No<br>
<br>
Text #59<br>
ID : 61<br>
Format : UTF-8<br>
Codec ID : S_TEXT/UTF8<br>
Codec ID/Info : UTF-8 Plain Text<br>
Duration : 25 min 36 s<br>
Bit rate : 64 b/s<br>
Count of elements : 417<br>
Stream size : 12.0 KiB (0%)<br>
Language : Portuguese<br>
Default : No<br>
Forced : No<br>
<br>
Text #60<br>
ID : 62<br>
Format : UTF-8<br>
Codec ID : S_TEXT/UTF8<br>
Codec ID/Info : UTF-8 Plain Text<br>
Duration : 25 min 53 s<br>
Bit rate : 92 b/s<br>
Count of elements : 540<br>
Stream size : 17.5 KiB (0%)<br>
Title : SDH<br>
Language : Portuguese<br>
Default : No<br>
Forced : No<br>
<br>
Text #61<br>
ID : 63<br>
Format : UTF-8<br>
Codec ID : S_TEXT/UTF8<br>
Codec ID/Info : UTF-8 Plain Text<br>
Duration : 25 min 36 s<br>
Bit rate : 64 b/s<br>
Count of elements : 415<br>
Stream size : 12.1 KiB (0%)<br>
Title : Brazilian<br>
Language : Portuguese<br>
Default : No<br>
Forced : No<br>
<br>
Text #62<br>
ID : 64<br>
Format : UTF-8<br>
Codec ID : S_TEXT/UTF8<br>
Codec ID/Info : UTF-8 Plain Text<br>
Duration : 25 min 53 s<br>
Bit rate : 84 b/s<br>
Count of elements : 528<br>
Stream size : 16.0 KiB (0%)<br>
Title : Brazilian (SDH)<br>
Language : Portuguese<br>
Default : No<br>
Forced : No<br>
<br>
Text #63<br>
ID : 65<br>
Format : UTF-8<br>
Codec ID : S_TEXT/UTF8<br>
Codec ID/Info : UTF-8 Plain Text<br>
Duration : 25 min 36 s<br>
Bit rate : 113 b/s<br>
Count of elements : 436<br>
Stream size : 21.3 KiB (0%)<br>
Language : Russian<br>
Default : No<br>
Forced : No<br>
<br>
Text #64<br>
ID : 66<br>
Format : UTF-8<br>
Codec ID : S_TEXT/UTF8<br>
Codec ID/Info : UTF-8 Plain Text<br>
Duration : 25 min 53 s<br>
Bit rate : 157 b/s<br>
Count of elements : 560<br>
Stream size : 29.8 KiB (0%)<br>
Title : SDH<br>
Language : Russian<br>
Default : No<br>
Forced : No<br>
<br>
Text #65<br>
ID : 67<br>
Format : UTF-8<br>
Codec ID : S_TEXT/UTF8<br>
Codec ID/Info : UTF-8 Plain Text<br>
Duration : 25 min 36 s<br>
Bit rate : 66 b/s<br>
Count of elements : 433<br>
Stream size : 12.4 KiB (0%)<br>
Language : Slovak<br>
Default : No<br>
Forced : No<br>
<br>
Text #66<br>
ID : 68<br>
Format : UTF-8<br>
Codec ID : S_TEXT/UTF8<br>
Codec ID/Info : UTF-8 Plain Text<br>
Duration : 25 min 53 s<br>
Bit rate : 93 b/s<br>
Count of elements : 555<br>
Stream size : 17.6 KiB (0%)<br>
Title : SDH<br>
Language : Slovak<br>
Default : No<br>
Forced : No<br>
<br>
Text #67<br>
ID : 69<br>
Format : UTF-8<br>
Codec ID : S_TEXT/UTF8<br>
Codec ID/Info : UTF-8 Plain Text<br>
Duration : 25 min 36 s<br>
Bit rate : 55 b/s<br>
Count of elements : 359<br>
Stream size : 10.4 KiB (0%)<br>
Language : Slovenian<br>
Default : No<br>
Forced : No<br>
<br>
Text #68<br>
ID : 70<br>
Format : UTF-8<br>
Codec ID : S_TEXT/UTF8<br>
Codec ID/Info : UTF-8 Plain Text<br>
Duration : 25 min 53 s<br>
Bit rate : 73 b/s<br>
Count of elements : 448<br>
Stream size : 13.9 KiB (0%)<br>
Title : SDH<br>
Language : Slovenian<br>
Default : No<br>
Forced : No<br>
<br>
Text #69<br>
ID : 71<br>
Format : UTF-8<br>
Codec ID : S_TEXT/UTF8<br>
Codec ID/Info : UTF-8 Plain Text<br>
Duration : 25 min 36 s<br>
Bit rate : 71 b/s<br>
Count of elements : 403<br>
Stream size : 13.4 KiB (0%)<br>
Language : Swedish<br>
Default : No<br>
Forced : No<br>
<br>
Text #70<br>
ID : 72<br>
Format : UTF-8<br>
Codec ID : S_TEXT/UTF8<br>
Codec ID/Info : UTF-8 Plain Text<br>
Duration : 25 min 53 s<br>
Bit rate : 96 b/s<br>
Count of elements : 504<br>
Stream size : 18.3 KiB (0%)<br>
Title : SDH<br>
Language : Swedish<br>
Default : No<br>
Forced : No<br>
<br>
Text #71<br>
ID : 73<br>
Format : UTF-8<br>
Codec ID : S_TEXT/UTF8<br>
Codec ID/Info : UTF-8 Plain Text<br>
Duration : 25 min 36 s<br>
Bit rate : 232 b/s<br>
Count of elements : 435<br>
Stream size : 43.7 KiB (0%)<br>
Language : Tamil<br>
Default : No<br>
Forced : No<br>
<br>
Text #72<br>
ID : 74<br>
Format : UTF-8<br>
Codec ID : S_TEXT/UTF8<br>
Codec ID/Info : UTF-8 Plain Text<br>
Duration : 25 min 53 s<br>
Bit rate : 319 b/s<br>
Count of elements : 559<br>
Stream size : 60.6 KiB (0%)<br>
Title : SDH<br>
Language : Tamil<br>
Default : No<br>
Forced : No<br>
<br>
Text #73<br>
ID : 75<br>
Format : UTF-8<br>
Codec ID : S_TEXT/UTF8<br>
Codec ID/Info : UTF-8 Plain Text<br>
Duration : 25 min 36 s<br>
Bit rate : 212 b/s<br>
Count of elements : 435<br>
Stream size : 40.0 KiB (0%)<br>
Language : Telugu<br>
Default : No<br>
Forced : No<br>
<br>
Text #74<br>
ID : 76<br>
Format : UTF-8<br>
Codec ID : S_TEXT/UTF8<br>
Codec ID/Info : UTF-8 Plain Text<br>
Duration : 25 min 53 s<br>
Bit rate : 300 b/s<br>
Count of elements : 559<br>
Stream size : 56.9 KiB (0%)<br>
Title : SDH<br>
Language : Telugu<br>
Default : No<br>
Forced : No<br>
<br>
Text #75<br>
ID : 77<br>
Format : UTF-8<br>
Codec ID : S_TEXT/UTF8<br>
Codec ID/Info : UTF-8 Plain Text<br>
Duration : 25 min 36 s<br>
Bit rate : 180 b/s<br>
Count of elements : 435<br>
Stream size : 33.9 KiB (0%)<br>
Language : Thai<br>
Default : No<br>
Forced : No<br>
<br>
Text #76<br>
ID : 78<br>
Format : UTF-8<br>
Codec ID : S_TEXT/UTF8<br>
Codec ID/Info : UTF-8 Plain Text<br>
Duration : 25 min 53 s<br>
Bit rate : 230 b/s<br>
Count of elements : 558<br>
Stream size : 43.7 KiB (0%)<br>
Title : SDH<br>
Language : Thai<br>
Default : No<br>
Forced : No<br>
<br>
Text #77<br>
ID : 79<br>
Format : UTF-8<br>
Codec ID : S_TEXT/UTF8<br>
Codec ID/Info : UTF-8 Plain Text<br>
Duration : 25 min 36 s<br>
Bit rate : 69 b/s<br>
Count of elements : 425<br>
Stream size : 13.1 KiB (0%)<br>
Language : Turkish<br>
Default : No<br>
Forced : No<br>
<br>
Text #78<br>
ID : 80<br>
Format : UTF-8<br>
Codec ID : S_TEXT/UTF8<br>
Codec ID/Info : UTF-8 Plain Text<br>
Duration : 25 min 53 s<br>
Bit rate : 111 b/s<br>
Count of elements : 555<br>
Stream size : 21.2 KiB (0%)<br>
Title : SDH<br>
Language : Turkish<br>
Default : No<br>
Forced : No<br>
<br>
Text #79<br>
ID : 81<br>
Format : UTF-8<br>
Codec ID : S_TEXT/UTF8<br>
Codec ID/Info : UTF-8 Plain Text<br>
Duration : 25 min 36 s<br>
Bit rate : 106 b/s<br>
Count of elements : 436<br>
Stream size : 19.9 KiB (0%)<br>
Language : Ukrainian<br>
Default : No<br>
Forced : No<br>
<br>
Text #80<br>
ID : 82<br>
Format : UTF-8<br>
Codec ID : S_TEXT/UTF8<br>
Codec ID/Info : UTF-8 Plain Text<br>
Duration : 25 min 53 s<br>
Bit rate : 144 b/s<br>
Count of elements : 559<br>
Stream size : 27.4 KiB (0%)<br>
Title : SDH<br>
Language : Ukrainian<br>
Default : No<br>
Forced : No<br>
<br>
Text #81<br>
ID : 83<br>
Format : UTF-8<br>
Codec ID : S_TEXT/UTF8<br>
Codec ID/Info : UTF-8 Plain Text<br>
Duration : 25 min 36 s<br>
Bit rate : 86 b/s<br>
Count of elements : 436<br>
Stream size : 16.2 KiB (0%)<br>
Language : Vietnamese<br>
Default : No<br>
Forced : No<br>
<br>
Text #82<br>
ID : 84<br>
Format : UTF-8<br>
Codec ID : S_TEXT/UTF8<br>
Codec ID/Info : UTF-8 Plain Text<br>
Duration : 25 min 53 s<br>
Bit rate : 145 b/s<br>
Count of elements : 559<br>
Stream size : 27.7 KiB (0%)<br>
Title : SDH<br>
Language : Vietnamese<br>
Default : No<br>
Forced : No<br>
<br>
Text #83<br>
ID : 85<br>
Format : UTF-8<br>
Codec ID : S_TEXT/UTF8<br>
Codec ID/Info : UTF-8 Plain Text<br>
Duration : 25 min 36 s<br>
Bit rate : 65 b/s<br>
Count of elements : 436<br>
Stream size : 12.4 KiB (0%)<br>
Title : Traditional, Cantonese<br>
Language : Chinese<br>
Default : No<br>
Forced : No<br>
<br>
Text #84<br>
ID : 86<br>
Format : UTF-8<br>
Codec ID : S_TEXT/UTF8<br>
Codec ID/Info : UTF-8 Plain Text<br>
Duration : 25 min 53 s<br>
Bit rate : 99 b/s<br>
Count of elements : 559<br>
Stream size : 18.8 KiB (0%)<br>
Title : Traditional, Cantonese (SDH)<br>
Language : Chinese<br>
Default : No<br>
Forced : No</div>
</div><br>
Screenshots:<br>
<img src="https://ptpimg.me/xglb73.jpg" class="bbCodeImage LbImage" alt="[​IMG]" data-url="https://ptpimg.me/xglb73.jpg" style=""> <br>
<div class="bbCodeBlock bbCodeVfcHH HiddenContent">
<div class="attribution type">Hidden Content:</div>
<blockquote>You must either reply or click 'Like' to see the hidden information contained here.</blockquote>
</div>
<div class="messageTextEndMarker">&nbsp;</div>
</blockquote>
</article>]]></description>
                <author><![CDATA[LazyRips]]></author>
                </item>

                
                <item>
                <title><![CDATA[【HD Live Performances】WEB-DL - Benson Boone Live 'MTV PUSH' 1080]]></title>
                <link><![CDATA[https://sharemania.us/threads/benson-boone-live-mtv-push-1080.241355/]]></link>
                <description><![CDATA[<article>
<blockquote class="messageText SelectQuoteContainer ugc baseHtml">
<div style="text-align: center"><img src="https://i.ibb.co/4KWFt61/20240404000422.gif" class="bbCodeImage LbImage" alt="[​IMG]" data-url="https://i.ibb.co/4KWFt61/20240404000422.gif" style=""><br>
<div class="bbCodeBlock bbCodeVfcHH HiddenContent">
<div class="attribution type">Hidden Content:</div>
<blockquote>You must reply before you can see the hidden data contained here.</blockquote>
</div><img src="https://i.ibb.co/ZxfDQst/20240404000449.gif" class="bbCodeImage LbImage" alt="[​IMG]" data-url="https://i.ibb.co/ZxfDQst/20240404000449.gif" style=""><br>
<div class="bbCodeBlock bbCodeVfcHH HiddenContent">
<div class="attribution type">Hidden Content:</div>
<blockquote>You must reply before you can see the hidden data contained here.</blockquote>
</div><img src="https://i.ytimg.com/vi/7tzGErj2Lj4/maxresdefault.jpg" class="bbCodeImage LbImage" alt="[​IMG]" data-url="https://i.ytimg.com/vi/7tzGErj2Lj4/maxresdefault.jpg" style="">​</div>
<div class="messageTextEndMarker">&nbsp;</div>
</blockquote>
</article>]]></description>
                <author><![CDATA[fstambuk]]></author>
                </item>

                
                <item>
                <title><![CDATA[【Cinema Center】MOVIE - Xuxa Popstar (2000) 1080p GLBO (GLOBOPLAY) WEB-DL AAC2.0 (Português Brasileiro) x264-DASH]]></title>
                <link><![CDATA[https://sharemania.us/threads/xuxa-popstar-2000-1080p-glbo-globoplay-web-dl-aac2-0-portugu%C3%AAs-brasileiro-x264-dash.241356/]]></link>
                <description><![CDATA[<article>
<blockquote class="messageText SelectQuoteContainer ugc baseHtml">
<span style="font-size: 22px"><b>Xuxa.Popstar.2000.1080p.GLBO.WEB-DL.AAC2.0.x264-DASH.mkv (Português Brasileiro | Brazilian Portuguese)</b></span><br>
<span style="font-size: 18px"><br>
Título: </span><b><span style="font-size: 18px">Xuxa E Os Duendes 2: No Caminho Das Fadas</span></b><br>
<span style="font-size: 18px"><br>
Ano de lançamento:<b> 2002</b><br>
<br>
Idioma: <b><b>Português (Brasil)</b></b><br>
<br>
Serviço:</span><b><b> <span style="font-size: 18px">GLOBOPLAY (Brasil)</span></b></b><br>
<br>
<div class="ToggleTriggerAnchor bbCodeSpoilerContainer">
<button type="button" class="button bbCodeSpoilerButton ToggleTrigger Tooltip JsOnly" data-target="> .SpoilerTarget"><span>Spoiler: <span class="SpoilerTitle">MediaInfo</span></span></button>
<div class="SpoilerTarget bbCodeSpoilerText">General<br>
Unique ID : 53947253249733113829439394019855119985 (0x2895DCF0863B8CCA7936B717AE593671)<br>
Complete name : Xuxa.Popstar.2000.1080p.GLBO.WEB-DL.AAC2.0.x264-DASH\Xuxa.Popstar.2000.1080p.GLBO.WEB-DL.AAC2.0.x264-DASH.mkv<br>
Format : Matroska<br>
Format version : Version 4<br>
File size : 2.59 GiB<br>
Duration : 1 h 17 min<br>
Overall bit rate : 4 785 kb/s<br>
Frame rate : 29.970 FPS<br>
Encoded date : 2024-04-03 19:29:27 UTC<br>
Writing application : mkvmerge v82.0 ('I'm The President') 64-bit<br>
Writing library : libebml v1.4.5 + libmatroska v1.7.1<br>
<br>
Video<br>
ID : 1<br>
Format : AVC<br>
Format/Info : Advanced Video Codec<br>
Format profile : High@L4<br>
Format settings : CABAC / 2 Ref Frames<br>
Format settings, CABAC : Yes<br>
Format settings, Reference frames : 2 frames<br>
Codec ID : V_MPEG4/ISO/AVC<br>
Duration : 1 h 17 min<br>
Bit rate : 4 660 kb/s<br>
Width : 1 920 pixels<br>
Height : 1 080 pixels<br>
Display aspect ratio : 16:9<br>
Frame rate mode : Constant<br>
Frame rate : 29.970 (29970/1000) FPS<br>
Color space : YUV<br>
Chroma subsampling : 4:2:0<br>
Bit depth : 8 bits<br>
Scan type : Progressive<br>
Bits/(Pixel*Frame) : 0.075<br>
Stream size : 2.52 GiB (97%)<br>
Writing library : x264 core 148<br>
Encoding settings : cabac=1 / ref=2 / deblock=1:0:0 / analyse=0x3:0x113 / me=hex / subme=4 / psy=1 / psy_rd=1.00:0.00 / mixed_ref=0 / me_range=16 / chroma_me=1 / trellis=1 / 8x8dct=1 / cqm=0 / deadzone=21,11 / fast_pskip=1 / chroma_qp_offset=0 / threads=24 / lookahead_threads=6 / sliced_threads=0 / nr=0 / decimate=1 / interlaced=0 / bluray_compat=0 / constrained_intra=0 / bframes=1 / b_pyramid=0 / b_adapt=1 / b_bias=0 / direct=1 / weightb=1 / open_gop=0 / weightp=1 / keyint=30 / keyint_min=16 / scenecut=0 / intra_refresh=0 / rc=2pass / mbtree=0 / bitrate=4660 / ratetol=1.0 / qcomp=0.60 / qpmin=0 / qpmax=69 / qpstep=4 / cplxblur=20.0 / qblur=0.5 / ip_ratio=1.40 / pb_ratio=1.30 / aq=1:1.00<br>
Default : Yes<br>
Forced : No<br>
<br>
Audio<br>
ID : 2<br>
Format : AAC LC<br>
Format/Info : Advanced Audio Codec Low Complexity<br>
Codec ID : A_AAC-2<br>
Duration : 1 h 17 min<br>
Bit rate : 128 kb/s<br>
Channel(s) : 2 channels<br>
Channel layout : L R<br>
Sampling rate : 44.1 kHz<br>
Frame rate : 43.066 FPS (1024 SPF)<br>
Compression mode : Lossy<br>
Delay relative to video : -46 ms<br>
Stream size : 71.0 MiB (3%)<br>
Default : Yes<br>
Forced : No<br>
<br>
Text<br>
ID : 3<br>
Format : UTF-8<br>
Codec ID : S_TEXT/UTF8<br>
Codec ID/Info : UTF-8 Plain Text<br>
Duration : 1 h 17 min<br>
Bit rate : 87 b/s<br>
Frame rate : 0.345 FPS<br>
Count of elements : 1606<br>
Stream size : 49.9 KiB (0%)<br>
Title : Portuguese (caption)<br>
Language : Portuguese<br>
Default : No<br>
Forced : No</div>
</div><br>
<img src="https://i.imgur.com/2u1CaYW.jpeg" class="bbCodeImage LbImage" alt="[​IMG]" data-url="https://i.imgur.com/2u1CaYW.jpeg" style=""> <br>
<br>
<b><span style="font-size: 22px">Uma ex-modelo retorna ao Brasil para conhecer um pretendente que conheceu on-line. Enquanto isso, sua agência de modelos se torna bem-sucedida e causa inveja em alguns.<br>
<br>
Imagens:</span></b><br>
<img src="https://i.imgur.com/P87DTQW.png" class="bbCodeImage LbImage" alt="[​IMG]" data-url="https://i.imgur.com/P87DTQW.png" style=""> <br>
<b><span style="font-size: 22px"><br>
<b><span style="font-size: 26px">Download no Mega:</span></b></span><br>
<span style="font-size: 18px">
<div class="bbCodeBlock bbCodeVfcHH HiddenContent">
<div class="attribution type">Hidden Content:</div>
<blockquote>You must reply before you can see the hidden data contained here.</blockquote>
</div></span></b>
<div class="messageTextEndMarker">&nbsp;</div>
</blockquote>
</article>]]></description>
                <author><![CDATA[dash]]></author>
                </item>

                </channel></rss>